<?xml version="1.0" encoding="utf-8"?>
<!-- Generator: Adobe Illustrator 25.3.1, SVG Export Plug-In . SVG Version: 6.00 Build 0)  -->
<svg version="1.1" id="Layer_1" xmlns="http://www.w3.org/2000/svg" xmlns:xlink="http://www.w3.org/1999/xlink" x="0px" y="0px"
	 viewBox="0 0 256 256" style="enable-background:new 0 0 256 256;" xml:space="preserve">
<style type="text/css">
	.st0{fill:#091F42;}
	.st1{fill:#C2C9D1;}
	.st2{fill:#1E58B1;}
	.st3{fill:#3A70C4;}
</style>
<g id="icon-256x256.psd_1_">
	<rect class="st0" width="256" height="256"/>
	<g>
		<path class="st1" d="M76.4,178.7c1.4,1.7,3.8,3.2,6.9,3.2c4.6,0,5.9-2.5,5.9-4.4c0-3.1-3-4-6.1-4.8c-3.5-1-7.2-2-7.2-6.1
			c0-3.6,3.3-5.9,7.3-5.9c3.3,0,5.8,1.2,7.5,3.1l-1.3,1.4c-1.6-1.9-3.9-2.8-6.4-2.8c-3,0-5.2,1.7-5.2,4.1c0,2.6,2.8,3.4,5.8,4.2
			c3.6,1,7.5,2.1,7.5,6.7c0,2.8-1.9,6.3-7.9,6.3c-3.7,0-6.4-1.5-8.1-3.5L76.4,178.7z"/>
		<path class="st1" d="M96.2,175.2c0-4.7,3-8.5,7.7-8.5c4.8,0,7.8,3.7,7.8,8.5c0,4.7-3,8.5-7.8,8.5
			C99.3,183.7,96.2,179.9,96.2,175.2z M109.9,175.2c0-3.6-2.1-6.9-5.9-6.9c-3.7,0-5.9,3.3-5.9,6.9c0,3.6,2.1,6.9,5.9,6.9
			C107.8,182.1,109.9,178.8,109.9,175.2z"/>
		<path class="st1" d="M124.6,166.7c2.8,0,4.4,1.1,5.7,2.7l-1.2,1.1c-1.2-1.6-2.6-2.2-4.4-2.2c-3.8,0-6.1,3-6.1,6.9
			c0,3.9,2.3,6.9,6.1,6.9c1.8,0,3.2-0.7,4.4-2.3l1.2,1.1c-1.3,1.7-2.9,2.8-5.7,2.8c-4.7,0-7.8-3.8-7.8-8.5
			C116.7,170.5,119.8,166.7,124.6,166.7z"/>
		<path class="st1" d="M142.1,166.7c2.8,0,4.4,1.1,5.7,2.7l-1.2,1.1c-1.2-1.6-2.6-2.2-4.4-2.2c-3.8,0-6.1,3-6.1,6.9
			c0,3.9,2.3,6.9,6.1,6.9c1.8,0,3.2-0.7,4.4-2.3l1.2,1.1c-1.3,1.7-2.9,2.8-5.7,2.8c-4.7,0-7.8-3.8-7.8-8.5
			C134.2,170.5,137.3,166.7,142.1,166.7z"/>
		<path class="st1" d="M159.5,166.7c4.9,0,7.6,3.9,7.6,8.6v0.5h-13.5c0.2,3.5,2.5,6.4,6.3,6.4c2.1,0,3.9-0.8,5.3-2.2l0.9,1.1
			c-1.6,1.7-3.6,2.6-6.3,2.6c-4.7,0-8.1-3.5-8.1-8.5C151.7,170.5,155,166.7,159.5,166.7z M153.6,174.4h11.7c0-2.7-1.8-6.1-5.9-6.1
			C155.6,168.2,153.7,171.6,153.6,174.4z"/>
		<path class="st1" d="M172.8,167.1h1.7v2.8c1.4-1.8,3.2-3.1,5.4-3.1v1.9c-0.3,0-0.5-0.1-0.9-0.1c-1.6,0-3.8,1.5-4.6,2.9v11.8h-1.7
			V167.1z"/>
		<path class="st1" d="M94.2,222.8H82.4l-2.2,5.5H78l9.1-22.3h2.4l9.1,22.3h-2.1L94.2,222.8z M83,221h10.7l-5.3-13.2L83,221z"/>
		<path class="st1" d="M109.8,211.7c2.8,0,4.4,1.1,5.7,2.7l-1.2,1.1c-1.2-1.6-2.6-2.2-4.4-2.2c-3.8,0-6.1,3-6.1,6.9
			c0,3.9,2.3,6.9,6.1,6.9c1.8,0,3.2-0.7,4.4-2.3l1.2,1.1c-1.3,1.7-2.9,2.8-5.7,2.8c-4.7,0-7.8-3.8-7.8-8.5
			C102,215.5,105.1,211.7,109.8,211.7z"/>
		<path class="st1" d="M122.2,225.1v-11.5h-2.7v-1.6h2.7v-4.4h1.8v4.4h3.3v1.6h-3.3v11.2c0,1.3,0.5,2.2,1.7,2.2
			c0.8,0,1.4-0.4,1.8-0.8l0.7,1.3c-0.6,0.6-1.4,1-2.7,1C123.2,228.7,122.2,227.4,122.2,225.1z"/>
		<path class="st1" d="M132.2,208c0-0.7,0.6-1.3,1.3-1.3c0.7,0,1.3,0.6,1.3,1.3c0,0.7-0.6,1.3-1.3,1.3
			C132.9,209.4,132.2,208.8,132.2,208z M132.7,212.1h1.7v16.1h-1.7V212.1z"/>
		<path class="st1" d="M140.1,220.2c0-4.7,3-8.5,7.7-8.5c4.8,0,7.8,3.7,7.8,8.5c0,4.7-3,8.5-7.8,8.5
			C143.2,228.7,140.1,224.9,140.1,220.2z M153.8,220.2c0-3.6-2.1-6.9-5.9-6.9c-3.7,0-5.9,3.3-5.9,6.9c0,3.6,2.1,6.9,5.9,6.9
			C151.7,227.1,153.8,223.8,153.8,220.2z"/>
		<path class="st1" d="M172.4,217.4c0-3.1-1.6-4.1-3.9-4.1c-2.1,0-4.2,1.3-5.2,2.8v12.2h-1.7v-16.1h1.7v2.4c1.2-1.4,3.5-2.8,5.8-2.8
			c3.3,0,5.1,1.6,5.1,5.2v11.3h-1.7V217.4z"/>
	</g>
</g>
<g id="_x3C_Group_x3E__1_">
	<polygon class="st2" points="128,96.9 114.1,83 141.9,83 	"/>
	<polygon class="st3" points="128,69.1 141.9,83 114.1,83 	"/>
	<polyline class="st2" points="155.8,83 128,110.8 100.2,83 72.5,83 128,138.5 183.5,83 	"/>
	<polygon class="st3" points="128,55.2 128,27.5 183.5,83 155.8,83 	"/>
</g>
<g>
</g>
<g>
</g>
<g>
</g>
<g>
</g>
<g>
</g>
<g>
</g>
<g>
</g>
<g>
</g>
<g>
</g>
<g>
</g>
<g>
</g>
<g>
</g>
<g>
</g>
<g>
</g>
<g>
</g>
</svg>
